<svg width="24" height="24" viewBox="0 0 24 24" fill="none" xmlns="http://www.w3.org/2000/svg">
<path d="M15.362 10.8584L10.732 15.4884L8.54797 13.3049" stroke="#F0F0F0" stroke-width="0.5" stroke-linecap="round" stroke-linejoin="round"/>
<path d="M12.028 21.2014C16.506 21.2014 20.136 17.5713 20.136 13.0934C20.136 8.61543 16.506 4.98535 12.028 4.98535C7.55012 4.98535 3.92004 8.61543 3.92004 13.0934C3.92004 17.5713 7.55012 21.2014 12.028 21.2014Z" stroke="#F0F0F0" stroke-width="0.5" stroke-linecap="round" stroke-linejoin="round"/>
<path d="M12.0916 19.3223C15.5433 19.3223 18.3416 16.524 18.3416 13.0723C18.3416 9.62049 15.5433 6.82227 12.0916 6.82227C8.63977 6.82227 5.84155 9.62049 5.84155 13.0723C5.84155 16.524 8.63977 19.3223 12.0916 19.3223Z" stroke="#F0F0F0" stroke-width="0.5" stroke-linecap="round" stroke-linejoin="round"/>
<path d="M19.8115 7.74383L21.076 6.31883L16.9065 2.79883L15.6795 4.25583L19.8115 7.74383ZM4.18845 7.74383L2.92395 6.31883L7.09295 2.79883L8.32045 4.25583L4.18845 7.74383Z" stroke="#F0F0F0" stroke-width="0.5" stroke-linecap="round" stroke-linejoin="round"/>
</svg>
