<svg width="20" height="20" viewBox="0 0 20 20" fill="none" xmlns="http://www.w3.org/2000/svg">
<path d="M10 2.5C11.7938 2.5 13.25 3.95625 13.25 5.75C13.25 7.54375 11.7938 9 10 9C8.20625 9 6.75 7.54375 6.75 5.75C6.75 3.95625 8.20625 2.5 10 2.5ZM3 4.75C4.24375 4.75 5.25 5.75625 5.25 7C5.25 8.24375 4.24375 9.25 3 9.25C1.75625 9.25 0.75 8.24375 0.75 7C0.75 5.75625 1.75625 4.75 3 4.75ZM0 15C0 12.7906 1.79063 11 4 11C4.4 11 4.7875 11.0594 5.15312 11.1687C4.125 12.3187 3.5 13.8375 3.5 15.5V16C3.5 16.3562 3.575 16.6937 3.70937 17H1C0.446875 17 0 16.5531 0 16V15ZM16.2906 17C16.425 16.6937 16.5 16.3562 16.5 16V15.5C16.5 13.8375 15.875 12.3187 14.8469 11.1687C15.2125 11.0594 15.6 11 16 11C18.2094 11 20 12.7906 20 15V16C20 16.5531 19.5531 17 19 17H16.2906ZM14.75 7C14.75 5.75625 15.7563 4.75 17 4.75C18.2437 4.75 19.25 5.75625 19.25 7C19.25 8.24375 18.2437 9.25 17 9.25C15.7563 9.25 14.75 8.24375 14.75 7ZM5 15.5C5 12.7375 7.2375 10.5 10 10.5C12.7625 10.5 15 12.7375 15 15.5V16C15 16.5531 14.5531 17 14 17H6C5.44687 17 5 16.5531 5 16V15.5Z" fill="#f0f0f0"/>
</svg>
