<svg width="24" height="24" viewBox="0 0 24 24" fill="none" xmlns="http://www.w3.org/2000/svg">
<path d="M11.6691 5.21215C11.6984 5.14907 11.7451 5.09568 11.8038 5.05826C11.8624 5.02085 11.9305 5.00098 12.0001 5.00098C12.0696 5.00098 12.1378 5.02085 12.1964 5.05826C12.255 5.09568 12.3018 5.14907 12.3311 5.21215L13.1451 6.88015C13.1991 6.99015 13.3001 7.06715 13.4181 7.08715L15.1861 7.38115C15.4861 7.43115 15.6061 7.81514 15.3911 8.03914L14.1251 9.36515C14.0834 9.40941 14.0524 9.46259 14.0344 9.52064C14.0164 9.57868 14.0118 9.64007 14.0211 9.70015L14.3001 11.5501C14.3471 11.8641 14.0341 12.1011 13.7641 11.9571L12.1691 11.1081C12.117 11.0805 12.059 11.066 12.0001 11.066C11.9412 11.066 11.8831 11.0805 11.8311 11.1081L10.2361 11.9571C9.96608 12.1011 9.65308 11.8641 9.70008 11.5501L9.97908 9.70015C9.98834 9.64007 9.98378 9.57868 9.96576 9.52064C9.94774 9.46259 9.91673 9.40941 9.87508 9.36515L8.60908 8.04015C8.39508 7.81615 8.51408 7.43215 8.81408 7.38215L10.5821 7.08815C10.6409 7.07821 10.6965 7.05419 10.744 7.01815C10.7915 6.9821 10.8296 6.9351 10.8551 6.88115L11.6691 5.21215Z" stroke="#F0F0F0" stroke-width="1.5" stroke-linecap="round" stroke-linejoin="round"/>
<path d="M19 9C19 9.91925 18.8189 10.8295 18.4672 11.6788C18.1154 12.5281 17.5998 13.2997 16.9497 13.9497C16.2997 14.5998 15.5281 15.1154 14.6788 15.4672C13.8295 15.8189 12.9193 16 12 16C11.0807 16 10.1705 15.8189 9.32122 15.4672C8.47194 15.1154 7.70026 14.5998 7.05025 13.9497C6.40024 13.2997 5.88463 12.5281 5.53284 11.6788C5.18106 10.8295 5 9.91925 5 9C5 7.14348 5.7375 5.36301 7.05025 4.05025C8.36301 2.7375 10.1435 2 12 2C13.8565 2 15.637 2.7375 16.9497 4.05025C18.2625 5.36301 19 7.14348 19 9Z" stroke="#F0F0F0" stroke-width="1.5" stroke-linecap="round" stroke-linejoin="round"/>
<path d="M13.0001 16.342L14.6261 20.652C14.9541 21.519 15.1181 21.954 15.4031 22C15.6891 21.958 16.0391 21.48 16.3811 20.617C16.6261 19.999 16.7481 19.69 17.0011 19.523C17.0784 19.4723 17.1621 19.4323 17.2521 19.403C17.5441 19.311 17.8791 19.401 18.5501 19.583C19.2671 19.777 19.7651 19.723 19.9621 19.583C20.0201 19.542 19.9621 19.58 19.9621 19.58C20.0781 19.374 19.9221 19.054 19.6091 18.413L17.4561 14M11.0001 16.342L9.37406 20.65C9.04606 21.518 8.72206 21.954 8.43706 22C8.15106 21.958 7.98006 21.526 7.63706 20.663C7.39306 20.045 7.25206 19.689 6.99906 19.523C6.92139 19.4715 6.83691 19.4311 6.74806 19.403C6.45606 19.31 6.12106 19.401 5.45006 19.582C4.73306 19.776 4.23506 19.719 4.03806 19.579C3.92206 19.373 4.07806 19.053 4.39106 18.412L6.54406 14" stroke="#F0F0F0" stroke-width="1.5" stroke-linecap="round" stroke-linejoin="round"/>
</svg>
