<svg width="24" height="24" viewBox="0 0 24 24" fill="none" xmlns="http://www.w3.org/2000/svg">
<g clip-path="url(#clip0_114_18)">
<path fill-rule="evenodd" clip-rule="evenodd" d="M2.612 7.981C2.5194 7.93441 2.42221 7.89755 2.322 7.871C2.21922 7.86162 2.11579 7.86162 2.013 7.871C0.906003 7.702 0.846003 7.821 0.776003 7.981C0.706003 8.141 0.726003 8.391 1.684 8.889C1.78 8.941 1.88 8.98433 1.984 9.019C2.094 9.033 2.20367 9.033 2.313 9.019C2.423 9.019 3.44 9.019 3.51 8.699C3.53 8.679 3.63 8.46 2.612 7.981ZM4.607 4.11C4.607 4.11 5.396 4.42 5.605 4.24C5.815 4.06 5.495 3.243 5.485 3.243C5.45619 3.18213 5.41537 3.12771 5.365 3.083C5.30776 3.04216 5.24379 3.01169 5.176 2.993C4.388 2.624 4.258 2.753 4.178 2.863C4.098 2.973 3.988 3.083 4.368 3.861C4.39092 3.90883 4.4213 3.95271 4.458 3.991C4.495 4.04499 4.54721 4.08676 4.608 4.111M12.09 1.995C12.36 1.995 12.669 1.277 12.699 1.197C12.7102 1.1308 12.7102 1.0632 12.699 0.997C12.709 0.927 12.709 0.857333 12.699 0.788C12.409 0 12.249 0 12.09 0C11.93 0 11.77 0 11.511 0.848C11.5014 0.914323 11.5014 0.981677 11.511 1.048C11.5014 1.11432 11.5014 1.18168 11.511 1.248C11.811 2.115 12.08 1.995 12.09 1.995ZM18.046 3.402C18.1204 3.36741 18.1881 3.32002 18.246 3.262C18.304 3.204 18.3573 3.14067 18.406 3.072C18.974 2.275 18.884 2.165 18.785 2.075C18.685 1.985 18.525 1.795 17.647 2.215L17.417 2.355C17.3521 2.41397 17.2953 2.48121 17.248 2.555C17.248 2.555 16.759 3.392 16.958 3.552C17.158 3.712 17.977 3.442 18.046 3.402ZM22.177 7.463C22.0211 7.44246 21.8625 7.46315 21.717 7.523C20.72 7.932 20.89 8.181 20.89 8.191C20.89 8.481 21.678 8.68 21.887 8.71C21.977 8.72533 22.067 8.72533 22.157 8.71C22.2446 8.69934 22.3295 8.67219 22.407 8.63C23.284 8.22 23.274 8.011 23.234 7.842C23.194 7.673 23.034 7.533 22.177 7.463ZM12.51 12.351C12.02 11.214 11.691 11.523 11.412 12.351V13.08C11.41 13.5433 11.4333 14.0053 11.482 14.466C11.542 15.165 11.652 15.843 11.692 16.542C11.6874 16.5932 11.6935 16.6448 11.7099 16.6935C11.7263 16.7422 11.7527 16.7869 11.7874 16.8249C11.822 16.8628 11.8642 16.8931 11.9112 16.9138C11.9583 16.9346 12.0091 16.9453 12.0605 16.9453C12.1119 16.9453 12.1627 16.9346 12.2098 16.9138C12.2568 16.8931 12.299 16.8628 12.3336 16.8249C12.3683 16.7869 12.3947 16.7422 12.4111 16.6935C12.4275 16.6448 12.4336 16.5932 12.429 16.542C12.5443 15.8507 12.6243 15.1553 12.669 14.456V13.568C12.66 13.2747 12.6366 12.982 12.599 12.691L12.51 12.351Z" fill="#F0F0F0"/>
<path fill-rule="evenodd" clip-rule="evenodd" d="M19.1741 8.37039C18.8968 6.90284 18.204 5.54575 17.1781 4.46039C16.1499 3.33298 14.7858 2.5668 13.2881 2.27539C11.6156 2.07143 9.92238 2.42166 8.46806 3.27239C6.98611 4.0434 5.77765 5.25222 5.00706 6.73439C4.49733 7.88158 4.26473 9.13264 4.32806 10.3864C4.37727 11.6292 4.71921 12.8427 5.32606 13.9284C5.88506 14.9254 6.55306 15.5944 7.03206 16.4324C7.32701 16.9316 7.52038 17.4842 7.60106 18.0584H7.50106C7.41367 18.0584 7.32986 18.0931 7.26807 18.1549C7.20627 18.2167 7.17156 18.3005 7.17156 18.3879C7.17156 18.4753 7.20627 18.5591 7.26807 18.6209C7.32986 18.6827 7.41367 18.7174 7.50106 18.7174H11.2221L13.6761 18.8074C14.1161 18.8234 14.5517 18.8734 14.9831 18.9574C15.1931 18.9774 15.3971 19.0424 15.5831 19.1464C15.7121 19.2164 15.8021 19.2764 15.8311 19.3564C15.8611 19.4354 15.8311 19.4354 15.7511 19.4854C15.6846 19.5713 15.6077 19.6486 15.5221 19.7154C14.9694 20.1261 14.3202 20.3872 13.6371 20.4734C12.5171 20.6294 11.3781 20.6084 10.2641 20.4134C9.89663 20.3434 9.54083 20.2222 9.20706 20.0534C8.86092 19.885 8.52739 19.6918 8.20906 19.4754C8.17094 19.4445 8.12692 19.4218 8.0797 19.4086C8.03248 19.3953 7.98306 19.3919 7.93446 19.3985C7.88587 19.405 7.83912 19.4214 7.79709 19.4467C7.75506 19.472 7.71864 19.5055 7.69006 19.5454C7.63324 19.6243 7.60883 19.722 7.62185 19.8183C7.63487 19.9147 7.68433 20.0024 7.76006 20.0634C8.17473 20.4014 8.61706 20.6974 9.08706 20.9514C9.15706 20.9514 9.24706 21.0014 9.32706 21.0414C9.27231 21.0771 9.23025 21.1292 9.2069 21.1903C9.18355 21.2514 9.18011 21.3182 9.19706 21.3814C9.32406 22.0074 9.62106 22.5874 10.0551 23.0574C10.5251 23.5414 11.1361 23.8654 11.8011 23.9844C12.5471 24.0603 13.2945 23.8541 13.8961 23.4064C14.1894 23.1833 14.4155 22.8836 14.5492 22.5402C14.683 22.1968 14.7193 21.8231 14.6541 21.4604C15.2454 21.3341 15.8052 21.0899 16.3001 20.7424C16.5162 20.5984 16.6993 20.4101 16.837 20.1899C16.9748 19.9697 17.0641 19.7228 17.0991 19.4654C17.1046 19.1762 17.0241 18.8919 16.8678 18.6485C16.7115 18.4051 16.4864 18.2136 16.2211 18.0984C16.0763 18.0364 15.9255 17.9895 15.7711 17.9584V17.8684C15.8063 17.3659 15.9793 16.8829 16.2711 16.4724C16.7291 15.7734 17.3681 15.1654 17.8371 14.4764C18.3941 13.5923 18.7893 12.6161 19.0041 11.5934C19.2762 10.5417 19.334 9.44592 19.1741 8.37139M13.4971 22.3394C13.2842 22.4976 13.039 22.6069 12.7791 22.6594C12.5121 22.7094 12.2381 22.7094 11.9711 22.6594C11.5264 22.6331 11.0994 22.4766 10.7431 22.2094C10.3738 21.9326 10.0733 21.5743 9.86506 21.1624C9.94573 21.2017 10.0291 21.2351 10.1151 21.2624C11.3211 21.5604 12.5671 21.6644 13.8061 21.5714H13.8661C13.8586 21.7176 13.822 21.8608 13.7585 21.9927C13.6949 22.1246 13.6067 22.2424 13.4971 22.3394ZM9.99506 9.85839C10.1351 9.49839 10.2751 9.14839 10.4441 8.80039C10.5241 8.62039 10.6341 8.45039 10.7241 8.28039C10.9141 8.38905 11.1134 8.47905 11.3221 8.55039C11.4727 8.59039 11.6257 8.61039 11.7811 8.61039C11.9397 8.61305 12.0961 8.59639 12.2501 8.56039C12.5331 8.48239 12.8021 8.36039 13.0481 8.20139C13.3381 8.76039 13.6071 9.31839 13.8861 9.87739C13.4571 9.81739 13.0381 9.75739 12.6091 9.71739H11.2221C10.7731 9.74739 10.3741 9.80839 9.99506 9.85839ZM11.2021 7.40239C11.3921 7.05239 11.5721 6.70339 11.7611 6.40439L11.8911 5.98539C11.9811 6.20539 12.0611 6.42539 12.1011 6.50439C12.2801 6.79439 12.4291 7.09339 12.5991 7.38239H12.1101C11.9201 7.37239 11.7304 7.37239 11.5411 7.38239C11.4177 7.37765 11.2942 7.38435 11.1721 7.40239H11.2021ZM13.7861 17.6984L11.3021 17.8184L10.3041 17.8784V14.3664C10.3041 13.9664 10.3041 13.5784 10.2341 13.1794C10.1541 12.3304 10.0441 11.5024 9.96506 10.6644C11.1764 11.0231 12.4621 11.0472 13.6861 10.7344C13.557 11.5832 13.4871 12.4399 13.4771 13.2984C13.4771 13.8574 13.5371 14.4164 13.5871 14.9644C13.6671 15.7924 13.8071 16.6114 13.8471 17.4394C13.8431 17.4872 13.8499 17.5353 13.8671 17.5802C13.8842 17.625 13.9112 17.6654 13.9461 17.6984H13.7861ZM18.0961 11.3234C17.924 12.2477 17.5862 13.1333 17.0991 13.9374C16.5791 14.7954 15.8021 15.5234 15.3731 16.4114C15.1751 16.8204 15.0631 17.2644 15.0431 17.7184C14.8572 17.708 14.6709 17.708 14.4851 17.7184C14.5508 17.6552 14.5901 17.5694 14.5951 17.4784C14.7251 16.5404 14.7921 15.5934 14.7941 14.6454C14.7941 14.0864 14.7941 13.5284 14.6941 12.9694C14.5297 11.1838 14.2498 9.41076 13.8561 7.66139C13.6286 7.09145 13.3825 6.52915 13.1181 5.97539C12.93 5.54952 12.7027 5.1421 12.4391 4.75839C12.2935 4.56955 12.0961 4.42711 11.8711 4.34839C11.7122 4.32761 11.5508 4.3569 11.4094 4.43218C11.268 4.50747 11.1535 4.62499 11.0821 4.76839C10.9321 5.05839 10.5941 5.82639 10.5841 5.84539C10.2341 6.70339 9.85506 7.57139 9.58606 8.46939C9.01706 10.1264 9.20606 9.38739 9.08706 13.2194V14.4364C9.08706 14.8454 9.13706 15.2344 9.17706 15.6334C9.26706 16.4114 9.38706 17.1794 9.49706 17.9474L8.31906 18.0274C8.24565 17.3499 8.04227 16.6929 7.72006 16.0924C7.27106 15.2344 6.63306 14.4954 6.11406 13.5184C5.61114 12.5429 5.34464 11.4628 5.33606 10.3654C5.32009 9.28287 5.56282 8.21218 6.04406 7.24239C6.70485 5.98816 7.73593 4.9679 8.99706 4.32039C10.2058 3.62853 11.6054 3.34516 12.9881 3.51239C14.247 3.73827 15.4007 4.36054 16.2811 5.28839C17.1938 6.18768 17.8364 7.32462 18.1361 8.57039C18.2961 9.48239 18.2831 10.4174 18.0961 11.3244" fill="#F0F0F0"/>
</g>
<defs>
<clipPath id="clip0_114_18">
<rect width="24" height="24" fill="white"/>
</clipPath>
</defs>
</svg>
