<svg width="24" height="24" viewBox="0 0 24 24" fill="none" xmlns="http://www.w3.org/2000/svg">
<g clip-path="url(#clip0_114_2)">
<path d="M6.74996 15.25H18M10.55 2.43996C10.7368 2.63664 10.9617 2.79325 11.211 2.90026C11.4602 3.00728 11.7287 3.06247 12 3.06247C12.2712 3.06247 12.5397 3.00728 12.789 2.90026C13.0382 2.79325 13.2631 2.63664 13.45 2.43996L14.39 1.43996C14.6672 1.16416 15.0192 0.975679 15.4024 0.897835C15.7856 0.819992 16.1833 0.856201 16.5461 1.00198C16.909 1.14777 17.2212 1.39673 17.444 1.71807C17.6669 2.0394 17.7906 2.41902 17.8 2.80996L17.73 4.20996C17.7177 4.48414 17.7619 4.75792 17.86 5.01426C17.958 5.27059 18.1078 5.504 18.3 5.69996C18.4959 5.89212 18.7293 6.04189 18.9857 6.13996C19.242 6.23802 19.5158 6.28227 19.79 6.26996L21.19 6.19996C21.5843 6.20162 21.9694 6.31981 22.2967 6.53969C22.6241 6.75956 22.8791 7.0713 23.0298 7.43572C23.1805 7.80014 23.2201 8.20097 23.1436 8.58783C23.0671 8.97468 22.878 9.3303 22.6 9.60996L21.6 10.55C21.4033 10.7368 21.2467 10.9617 21.1397 11.211C21.0326 11.4602 20.9775 11.7287 20.9775 12C20.9775 12.2712 21.0326 12.5397 21.1397 12.789C21.2467 13.0382 21.4033 13.2631 21.6 13.45L22.6 14.39C22.878 14.6696 23.0671 15.0252 23.1436 15.4121C23.2201 15.799 23.1805 16.1998 23.0298 16.5642C22.8791 16.9286 22.6241 17.2404 22.2967 17.4602C21.9694 17.6801 21.5843 17.7983 21.19 17.8L19.79 17.73C19.5172 17.7216 19.2456 17.7692 18.9919 17.8698C18.7382 17.9704 18.5078 18.1219 18.3148 18.3148C18.1219 18.5078 17.9704 18.7382 17.8698 18.9919C17.7692 19.2456 17.7216 19.5172 17.73 19.79L17.8 21.19C17.7983 21.5843 17.6801 21.9694 17.4602 22.2967C17.2404 22.6241 16.9286 22.8791 16.5642 23.0298C16.1998 23.1805 15.799 23.2201 15.4121 23.1436C15.0252 23.0671 14.6696 22.878 14.39 22.6L13.45 21.6C13.2631 21.4033 13.0382 21.2467 12.789 21.1397C12.5397 21.0326 12.2712 20.9775 12 20.9775C11.7287 20.9775 11.4602 21.0326 11.211 21.1397C10.9617 21.2467 10.7368 21.4033 10.55 21.6L9.60996 22.6C9.3303 22.878 8.97468 23.0671 8.58783 23.1436C8.20097 23.2201 7.80014 23.1805 7.43572 23.0298C7.0713 22.8791 6.75956 22.6241 6.53969 22.2967C6.31981 21.9694 6.20162 21.5843 6.19996 21.19L6.26996 19.79C6.28227 19.5158 6.23802 19.242 6.13996 18.9857C6.04189 18.7293 5.89212 18.4959 5.69996 18.3C5.504 18.1078 5.27059 17.958 5.01426 17.86C4.75792 17.7619 4.48414 17.7177 4.20996 17.73L2.80996 17.8C2.41562 17.7983 2.03057 17.6801 1.70322 17.4602C1.37586 17.2404 1.12081 16.9286 0.970129 16.5642C0.819445 16.1998 0.779855 15.799 0.856334 15.4121C0.932813 15.0252 1.12195 14.6696 1.39996 14.39L2.39996 13.45C2.59664 13.2631 2.75325 13.0382 2.86026 12.789C2.96728 12.5397 3.02247 12.2712 3.02247 12C3.02247 11.7287 2.96728 11.4602 2.86026 11.211C2.75325 10.9617 2.59664 10.7368 2.39996 10.55L1.39996 9.60996C1.12195 9.3303 0.932813 8.97468 0.856334 8.58783C0.779855 8.20097 0.819445 7.80014 0.970129 7.43572C1.12081 7.0713 1.37586 6.75956 1.70322 6.53969C2.03057 6.31981 2.41562 6.20162 2.80996 6.19996L4.20996 6.26996C4.48414 6.28227 4.75792 6.23802 5.01426 6.13996C5.27059 6.04189 5.504 5.89212 5.69996 5.69996C5.89212 5.504 6.04189 5.27059 6.13996 5.01426C6.23802 4.75792 6.28227 4.48414 6.26996 4.20996L6.19996 2.80996C6.20162 2.41562 6.31981 2.03057 6.53969 1.70322C6.75956 1.37586 7.0713 1.12081 7.43572 0.970129C7.80014 0.819445 8.20097 0.779855 8.58783 0.856334C8.97468 0.932813 9.3303 1.12195 9.60996 1.39996L10.55 2.43996Z" stroke="#F0F0F0" stroke-width="1.5" stroke-linecap="round" stroke-linejoin="round"/>
<path d="M12 15.25V7.75H8V15.25H12ZM12 15.25H16V10.5H12V15.25Z" stroke="#F0F0F0" stroke-width="1.5" stroke-linecap="round" stroke-linejoin="round"/>
</g>
<defs>
<clipPath id="clip0_114_2">
<rect width="24" height="24" fill="white"/>
</clipPath>
</defs>
</svg>
