<?xml version="1.0" encoding="utf-8"?>
<!-- Svg Vector Icons : http://www.onlinewebfonts.com/icon -->
<!DOCTYPE svg PUBLIC "-//W3C//DTD SVG 1.1//EN" "http://www.w3.org/Graphics/SVG/1.1/DTD/svg11.dtd">
<svg version="1.1" xmlns="http://www.w3.org/2000/svg" xmlns:xlink="http://www.w3.org/1999/xlink" x="0px" y="0px" viewBox="0 0 256 256" enable-background="new 0 0 256 256" xml:space="preserve">
<metadata> Svg Vector Icons : http://www.onlinewebfonts.com/icon </metadata>
<g><g><path fill="#282828" d="M138.7,20.8c53.3,0,96.5,43.2,96.5,96.5c0,3,2.4,5.4,5.4,5.4c3,0,5.4-2.4,5.4-5.4C246,58,198,10,138.7,10c-3,0-5.4,2.4-5.4,5.4C133.4,18.4,135.8,20.8,138.7,20.8 M138.7,74.4c23.7,0,42.9,19.2,42.9,42.9c0,3,2.4,5.4,5.4,5.4c3,0,5.4-2.4,5.4-5.4c0-29.6-24-53.6-53.6-53.6c-3,0-5.4,2.4-5.4,5.4C133.4,72,135.8,74.4,138.7,74.4 M138.7,128c5.9,0,10.7-4.8,10.7-10.7c0-5.9-4.8-10.7-10.7-10.7s-10.7,4.8-10.7,10.7C128,123.2,132.8,128,138.7,128 M245.9,197.6c0-4.4-1.8-8.5-4.7-11.4c-0.9-0.9-1.8-1.6-2.9-2.2l-45.4-35.3c-2.9-2.9-6.9-4.7-11.4-4.7c-3.6,0-7,1.3-9.6,3.3l-12.6,12.8l0,0c-2,2.2-4.8,3.6-8,3.6c-3.6,0-6.8-1.8-8.8-4.6c0,0.1-0.1,0.2-0.2,0.3c-17.5-12.7-33-28-45.7-45.5c0.1-0.1,0.2-0.2,0.4-0.2c-2.8-2-4.6-5.2-4.6-8.9c0-3.3,1.5-6.2,3.8-8.2h0l12.6-12.5c2-2.7,3.3-6,3.3-9.6c0-4.4-1.8-8.5-4.7-11.4L71.9,17.6c-0.6-1-1.3-2-2.2-2.8c-2.9-2.9-6.9-4.7-11.4-4.7C36.8,10.1,10,35.2,10,66.3c0,8.6,2,16.7,5.4,24l-0.2,0.2c32.2,64.2,85.9,117.9,150.1,150.1l0.2-0.2c7.3,3.5,15.4,5.4,24,5.4C220.7,246,245.9,219.2,245.9,197.6L245.9,197.6L245.9,197.6L245.9,197.6L245.9,197.6z M189.6,235.2c-6.7,0-13.3-1.5-19.5-4.4c-0.6-0.3-1.2-0.5-1.8-0.7c-61-31.1-111.5-81.6-142.6-142.5c-0.1-0.6-0.4-1.3-0.6-1.9c-2.9-6.2-4.4-12.7-4.4-19.5c0-26,22.8-45.6,37.5-45.6c1.9,0,3.2,1,3.8,1.6c0.1,0.1,0.4,0.4,0.7,1c0.2,0.3,0.4,0.6,0.6,0.9l35.3,45.4c0.3,0.4,0.6,0.7,0.9,1c0.6,0.6,1.6,1.9,1.6,3.8c0,1-0.3,1.9-0.8,2.7L88.4,88.9c0,0-0.1,0.1-0.2,0.2c-4.3,4.1-6.8,9.7-6.8,15.6c0,5.5,2.2,10.8,5.9,14.8c0.1,0.2,0.3,0.4,0.4,0.6c13.2,18.2,29.4,34.4,48.1,48c0.1,0.1,0.3,0.2,0.4,0.3c4,3.8,9.3,6,14.8,6c5.6,0,11-2.2,15-6.2c0.2-0.2,0.4-0.4,0.6-0.6l12-12.1c0.8-0.5,1.7-0.8,2.7-0.8c1.9,0,3.2,1,3.8,1.6c0.3,0.3,0.7,0.6,1,0.9l45.4,35.3c0.3,0.2,0.6,0.4,0.9,0.6c0.6,0.4,0.8,0.6,1,0.7c0.6,0.6,1.6,1.9,1.6,3.8c0,0.4,0,0.7,0,1.1C234.3,213.5,215.1,235.2,189.6,235.2"/></g></g>
</svg>