<svg width="24" height="24" viewBox="0 0 24 24" fill="none" xmlns="http://www.w3.org/2000/svg">
<path d="M18.4268 14.768L17.1998 13.542C16.8749 13.2172 16.4342 13.0348 15.9748 13.0348C15.5154 13.0348 15.0748 13.2172 14.7498 13.542L14.1368 14.155C13.9761 14.3161 13.7852 14.444 13.575 14.5312C13.3648 14.6185 13.1394 14.6634 12.9118 14.6634C12.6842 14.6634 12.4589 14.6185 12.2487 14.5312C12.0385 14.444 11.8475 14.3161 11.6868 14.155L9.84883 12.315C9.52397 11.9897 9.34149 11.5487 9.34149 11.089C9.34149 10.6292 9.52397 10.1883 9.84883 9.86296L10.4608 9.24996C10.7857 8.92465 10.9682 8.48371 10.9682 8.02396C10.9682 7.56422 10.7857 7.12327 10.4608 6.79796L9.23683 5.57196C9.08665 5.39322 8.89917 5.2495 8.68755 5.15091C8.47593 5.05231 8.2453 5.00122 8.01183 5.00122C7.77837 5.00122 7.54774 5.05231 7.33612 5.15091C7.1245 5.2495 6.93702 5.39322 6.78683 5.57196C3.56383 8.77196 5.08483 12.468 8.30583 15.689C11.5268 18.91 15.2198 20.434 18.4258 17.224C18.6056 17.0738 18.7502 16.886 18.8495 16.6738C18.9487 16.4616 19.0002 16.2302 19.0002 15.996C19.0002 15.7617 18.9487 15.5303 18.8495 15.3181C18.7502 15.1059 18.6066 14.9181 18.4268 14.768Z" stroke="#282828" stroke-width="2" stroke-linecap="round" stroke-linejoin="round"/>
</svg>
