<svg width="205" height="61" viewBox="0 0 205 61" fill="none" xmlns="http://www.w3.org/2000/svg">
<path d="M56.1932 6.13477V9.26957H63.0977V34.6614H65.7045V9.26957H72.9143V6.13477H56.1932Z" fill="#232323"/>
<path d="M101.408 9.23193C100.627 7.93224 99.6244 6.90298 98.4834 6.23123C97.3416 5.55948 96.0965 5.26503 94.8522 5.37279C93.5856 5.31794 92.3278 5.66825 91.1836 6.39455C90.0394 7.12084 89.0407 8.20211 88.2723 9.54826C86.649 12.5994 85.8179 16.2767 85.9061 20.0186C85.8091 23.8997 86.6379 27.7214 88.2723 30.9318C88.9771 32.2796 89.9218 33.3724 91.0199 34.1123C92.1188 34.8521 93.3385 35.2157 94.5677 35.1705C95.8613 35.2626 97.1533 34.9502 98.3404 34.2583C99.5282 33.5665 100.578 32.5142 101.408 31.1848C103.108 27.9322 103.941 24.0113 103.774 20.0503C103.958 16.185 103.12 12.3565 101.408 9.23193ZM99.3963 28.844C98.9196 29.866 98.2466 30.6984 97.4473 31.2548C96.6479 31.8111 95.7516 32.0709 94.8522 32.0073C93.9003 32.0615 92.9555 31.7657 92.1212 31.1521C91.2869 30.5386 90.5941 29.6309 90.1189 28.5278C89.0454 25.9161 88.5218 22.9646 88.6036 19.987C88.5226 17.0698 89.047 14.1795 90.1189 11.636C90.6378 10.6098 91.3465 9.77961 92.1753 9.22556C93.004 8.67151 93.9265 8.41225 94.8522 8.47276H95.0651C96.5327 8.47276 101.005 8.47275 101.005 20.0186C101.147 23.1099 100.586 26.186 99.3963 28.844Z" fill="#232323"/>
<path d="M132.643 6.1056V25.7547L120.324 5.35107V34.6518H122.716V15.2543L135.275 35.1863V6.1056H132.643Z" fill="#232323"/>
<path d="M162.405 18.4502L168.759 6.13477H166.005L157.535 21.5605V6.13477H154.946V34.6614H157.535V26.9642L160.641 21.1206L166.852 34.6614H169.7L162.405 18.4502Z" fill="#232323"/>
<path d="M193.11 5.61328L184.455 34.6633H187.143L188.983 28.5259H197.355L199.171 34.6633H201.765L193.11 5.61328ZM189.737 25.3472L193.015 13.9538L196.294 25.3472H189.737Z" fill="#232323"/>
<path d="M57.9586 53.2672V58.1444H56.6976V46.7408H57.9586V47.5478C58.3704 46.8812 58.9066 46.5479 59.5672 46.5479C60.3049 46.5479 60.9269 46.9045 61.433 47.618C61.9477 48.3197 62.2051 49.2437 62.2051 50.39C62.2051 51.5713 61.9391 52.5303 61.4073 53.2672C60.8754 53.9923 60.2663 54.3549 59.58 54.3549C58.9367 54.3549 58.3962 53.9923 57.9586 53.2672ZM59.4128 48.0917C58.9838 48.0917 58.6192 48.3022 58.319 48.7233C58.0273 49.1326 57.8815 49.7174 57.8815 50.4776C57.8815 51.2146 58.0273 51.7876 58.319 52.197C58.6192 52.6063 58.9838 52.8111 59.4128 52.8111C59.8588 52.8111 60.2191 52.5829 60.4936 52.1268C60.7767 51.6707 60.9183 51.1151 60.9183 50.4601C60.9183 49.7935 60.7767 49.2321 60.4936 48.776C60.2191 48.3197 59.8588 48.0917 59.4128 48.0917Z" fill="#232323"/>
<path d="M71.1776 51.6356L72.2327 52.4426C71.9925 53.0273 71.688 53.4777 71.3191 53.7935C70.8988 54.1677 70.3669 54.3549 69.7234 54.3549C68.9685 54.3549 68.3595 54.0391 67.8962 53.4075C67.3643 52.6823 67.0984 51.7409 67.0984 50.5829C67.0984 49.3666 67.3858 48.3548 67.9606 47.5478C68.4496 46.8812 69.0543 46.5479 69.7749 46.5479C70.4783 46.5479 71.0574 46.8694 71.5121 47.5127C72.0182 48.2262 72.2713 49.2672 72.2713 50.6356V50.8461H68.3852C68.4195 51.4659 68.5739 51.963 68.8484 52.3373C69.0801 52.6531 69.4018 52.8111 69.8135 52.8111C70.1481 52.8111 70.4355 52.6882 70.6757 52.4426C70.873 52.2321 71.0403 51.963 71.1776 51.6356ZM68.4752 49.4426H70.9845C70.9331 49.0332 70.8044 48.6999 70.5985 48.4426C70.3754 48.1619 70.0923 48.0215 69.7492 48.0215C69.3889 48.0215 69.0929 48.1794 68.8613 48.4952C68.6726 48.7291 68.5439 49.0449 68.4752 49.4426Z" fill="#232323"/>
<path d="M77.4497 54.1268V46.7408H78.7108V47.4075C78.8737 47.1501 79.0496 46.9455 79.2383 46.7935C79.4442 46.6297 79.7013 46.5479 80.0104 46.5479C80.3791 46.5479 80.7096 46.6648 81.0012 46.8988L80.4863 48.4601C80.2805 48.2846 80.066 48.197 79.8435 48.197C79.5082 48.197 79.2469 48.3315 79.0582 48.6004C78.8265 48.9397 78.7108 49.5069 78.7108 50.3022V54.1268H77.4497Z" fill="#232323"/>
<path d="M88.4622 48.3199H87.0979V54.127H85.8369V48.3199H85.2966V46.741H85.8369V44.1797C85.8369 43.1504 86.0125 42.3784 86.3645 41.8638C86.6991 41.3844 87.1281 41.1445 87.651 41.1445C87.9513 41.1445 88.2215 41.2147 88.4622 41.355V43.0568C88.2477 42.8814 88.0459 42.7937 87.8575 42.7937C87.6168 42.7937 87.4324 42.8872 87.3037 43.0744C87.1663 43.2616 87.0979 43.5539 87.0979 43.9516V46.741H88.4622V48.3199Z" fill="#232323"/>
<path d="M93.0375 46.7407H94.2985V50.9688C94.2985 51.5887 94.3755 52.0332 94.5297 52.3022C94.7188 52.6413 94.9929 52.811 95.3537 52.811C95.7136 52.811 95.9885 52.6413 96.1768 52.3022C96.331 52.0332 96.4088 51.5887 96.4088 50.9688V46.7407H97.6698V51.0214C97.6698 52.1092 97.4768 52.9162 97.0906 53.4425C96.644 54.0507 96.0569 54.3548 95.3274 54.3548C94.6242 54.3548 94.0537 54.0507 93.6159 53.4425C93.2298 52.9162 93.0375 52.1092 93.0375 51.0214V46.7407Z" fill="#232323"/>
<path d="M103.13 54.1268V46.7408H104.391V47.4251C104.743 46.8402 105.189 46.5479 105.73 46.5479C106.356 46.5479 106.823 46.9104 107.132 47.6356C107.501 46.9104 108.037 46.5479 108.741 46.5479C109.445 46.5479 109.959 46.9339 110.285 47.7058C110.474 48.1619 110.568 48.7817 110.568 49.5654V54.1268H109.307V50.0566C109.307 49.4134 109.268 48.9748 109.191 48.7409C109.071 48.3081 108.831 48.0917 108.47 48.0917C108.161 48.0917 107.913 48.273 107.724 48.6355C107.561 48.9514 107.48 49.5128 107.48 50.3198V54.1268H106.219V50.0566C106.219 49.4134 106.18 48.9748 106.103 48.7409C105.983 48.3081 105.743 48.0917 105.382 48.0917C105.074 48.0917 104.825 48.273 104.636 48.6355C104.473 48.9514 104.391 49.5128 104.391 50.3198V54.1268H103.13Z" fill="#232323"/>
<path d="M119.822 51.6356L120.877 52.4426C120.637 53.0273 120.333 53.4777 119.964 53.7935C119.544 54.1677 119.011 54.3549 118.368 54.3549C117.613 54.3549 117.004 54.0391 116.541 53.4075C116.009 52.6823 115.743 51.7409 115.743 50.5829C115.743 49.3666 116.03 48.3548 116.605 47.5478C117.094 46.8812 117.699 46.5479 118.419 46.5479C119.122 46.5479 119.702 46.8694 120.156 47.5127C120.662 48.2262 120.916 49.2672 120.916 50.6356V50.8461H117.03C117.064 51.4659 117.219 51.963 117.493 52.3373C117.725 52.6531 118.047 52.8111 118.458 52.8111C118.793 52.8111 119.08 52.6882 119.32 52.4426C119.517 52.2321 119.685 51.963 119.822 51.6356ZM117.119 49.4426H119.629C119.578 49.0332 119.449 48.6999 119.243 48.4426C119.02 48.1619 118.737 48.0215 118.394 48.0215C118.033 48.0215 117.738 48.1794 117.506 48.4952C117.317 48.7291 117.188 49.0449 117.119 49.4426Z" fill="#232323"/>
<path d="M129.401 47.8461L128.462 48.6882C128.273 48.2672 128.016 48.0566 127.69 48.0566C127.527 48.0566 127.398 48.1209 127.303 48.2496C127.226 48.3548 127.188 48.4835 127.188 48.6355C127.188 48.8111 127.248 48.9514 127.368 49.0567C127.394 49.08 127.419 49.1034 127.446 49.1268C127.471 49.1385 127.518 49.1677 127.587 49.2145C127.655 49.2613 127.724 49.308 127.793 49.3548L128.436 49.7935C128.796 50.0391 129.05 50.2671 129.195 50.4776C129.461 50.8402 129.594 51.2964 129.594 51.8461C129.594 52.501 129.435 53.0624 129.118 53.5303C128.75 54.0801 128.243 54.3549 127.6 54.3549C127.119 54.3549 126.729 54.1969 126.429 53.8812C126.103 53.5538 125.871 53.1034 125.734 52.5303L126.763 51.8636C126.849 52.2029 126.947 52.4367 127.059 52.5654C127.196 52.7525 127.381 52.846 127.613 52.846C127.836 52.846 128.007 52.7642 128.127 52.6004C128.247 52.4367 128.308 52.2438 128.308 52.0216C128.308 51.811 128.251 51.6239 128.14 51.4602C128.02 51.2964 127.84 51.1444 127.6 51.004L127.137 50.7057C126.776 50.4719 126.527 50.2613 126.39 50.0742C126.133 49.7349 126.004 49.3198 126.004 48.8285C126.004 48.2087 126.154 47.6823 126.455 47.2496C126.781 46.7818 127.222 46.5479 127.78 46.5479C128.166 46.5479 128.501 46.6765 128.784 46.9339C129.041 47.156 129.247 47.4602 129.401 47.8461Z" fill="#232323"/>
<path d="M141.456 54.1268V46.7408H142.717V47.4251C143.068 46.8402 143.514 46.5479 144.055 46.5479C144.681 46.5479 145.149 46.9104 145.457 47.6356C145.827 46.9104 146.362 46.5479 147.066 46.5479C147.769 46.5479 148.284 46.9339 148.61 47.7058C148.799 48.1619 148.893 48.7817 148.893 49.5654V54.1268H147.632V50.0566C147.632 49.4134 147.594 48.9748 147.516 48.7409C147.396 48.3081 147.156 48.0917 146.796 48.0917C146.487 48.0917 146.238 48.273 146.049 48.6355C145.886 48.9514 145.805 49.5128 145.805 50.3198V54.1268H144.543V50.0566C144.543 49.4134 144.505 48.9748 144.428 48.7409C144.308 48.3081 144.067 48.0917 143.707 48.0917C143.398 48.0917 143.15 48.273 142.96 48.6355C142.798 48.9514 142.717 49.5128 142.717 50.3198V54.1268H141.456Z" fill="#232323"/>
<path d="M154.891 47.6531C155.449 46.9163 156.139 46.5479 156.963 46.5479C157.786 46.5479 158.473 46.9163 159.022 47.6531C159.58 48.3783 159.859 49.308 159.859 50.4425C159.859 51.5654 159.58 52.501 159.022 53.2496C158.473 53.9864 157.786 54.3549 156.963 54.3549C156.139 54.3549 155.449 53.9864 154.891 53.2496C154.342 52.501 154.068 51.5654 154.068 50.4425C154.068 49.308 154.342 48.3783 154.891 47.6531ZM155.792 52.1794C156.084 52.6004 156.474 52.8111 156.963 52.8111C157.452 52.8111 157.842 52.6004 158.135 52.1794C158.426 51.7467 158.572 51.1736 158.572 50.4601C158.572 49.6765 158.413 49.0859 158.096 48.6882C157.786 48.2905 157.409 48.0917 156.963 48.0917C156.517 48.0917 156.135 48.2905 155.818 48.6882C155.509 49.0859 155.355 49.6765 155.355 50.4601C155.355 51.1736 155.5 51.7467 155.792 52.1794Z" fill="#232323"/>
<path d="M168.342 47.8461L167.402 48.6882C167.214 48.2672 166.957 48.0566 166.631 48.0566C166.467 48.0566 166.339 48.1209 166.245 48.2496C166.168 48.3548 166.129 48.4835 166.129 48.6355C166.129 48.8111 166.189 48.9514 166.309 49.0567C166.334 49.08 166.36 49.1034 166.386 49.1268C166.412 49.1385 166.459 49.1677 166.528 49.2145C166.596 49.2613 166.665 49.308 166.733 49.3548L167.377 49.7935C167.737 50.0391 167.99 50.2671 168.136 50.4776C168.402 50.8402 168.535 51.2964 168.535 51.8461C168.535 52.501 168.376 53.0624 168.059 53.5303C167.69 54.0801 167.184 54.3549 166.54 54.3549C166.06 54.3549 165.669 54.1969 165.369 53.8812C165.043 53.5538 164.812 53.1034 164.675 52.5303L165.704 51.8636C165.79 52.2029 165.889 52.4367 166 52.5654C166.137 52.7525 166.322 52.846 166.553 52.846C166.776 52.846 166.948 52.7642 167.068 52.6004C167.188 52.4367 167.248 52.2438 167.248 52.0216C167.248 51.811 167.193 51.6239 167.081 51.4602C166.961 51.2964 166.781 51.1444 166.54 51.004L166.077 50.7057C165.717 50.4719 165.468 50.2613 165.331 50.0742C165.073 49.7349 164.945 49.3198 164.945 48.8285C164.945 48.2087 165.095 47.6823 165.395 47.2496C165.721 46.7818 166.163 46.5479 166.721 46.5479C167.107 46.5479 167.441 46.6765 167.724 46.9339C167.982 47.156 168.187 47.4602 168.342 47.8461Z" fill="#232323"/>
<path d="M177.727 47.0742V49.004C177.273 48.3958 176.762 48.0917 176.196 48.0917C175.715 48.0917 175.316 48.3081 174.999 48.7409C174.69 49.1619 174.536 49.7292 174.536 50.4425C174.536 51.1795 174.699 51.7701 175.025 52.2145C175.334 52.6122 175.715 52.8111 176.17 52.8111C176.797 52.8111 177.315 52.4952 177.727 51.8636V53.7759C177.273 54.1619 176.723 54.3549 176.08 54.3549C175.214 54.3549 174.527 53.9923 174.021 53.2672C173.506 52.542 173.249 51.618 173.249 50.4952C173.249 49.3374 173.524 48.3841 174.073 47.6356C174.604 46.9104 175.33 46.5479 176.248 46.5479C176.77 46.5479 177.264 46.7233 177.727 47.0742Z" fill="#232323"/>
<path d="M183.337 47.6531C183.895 46.9163 184.585 46.5479 185.408 46.5479C186.232 46.5479 186.918 46.9163 187.467 47.6531C188.025 48.3783 188.304 49.308 188.304 50.4425C188.304 51.5654 188.025 52.501 187.467 53.2496C186.918 53.9864 186.232 54.3549 185.408 54.3549C184.585 54.3549 183.895 53.9864 183.337 53.2496C182.788 52.501 182.513 51.5654 182.513 50.4425C182.513 49.308 182.788 48.3783 183.337 47.6531ZM184.238 52.1794C184.529 52.6004 184.92 52.8111 185.408 52.8111C185.898 52.8111 186.288 52.6004 186.579 52.1794C186.871 51.7467 187.017 51.1736 187.017 50.4601C187.017 49.6765 186.858 49.0859 186.541 48.6882C186.232 48.2905 185.855 48.0917 185.408 48.0917C184.962 48.0917 184.58 48.2905 184.263 48.6882C183.954 49.0859 183.8 49.6765 183.8 50.4601C183.8 51.1736 183.945 51.7467 184.238 52.1794Z" fill="#232323"/>
<path d="M192.76 46.7409H194.175L195.578 50.9689L197.096 46.1094L198.615 50.9689L200.017 46.7409H201.432L198.615 54.6532L197.096 49.9339L195.578 54.6532L192.76 46.7409Z" fill="#232323"/>
<path d="M41.919 30.7109C41.919 46.3655 32.851 58.9869 21.7271 58.9869C10.6033 58.9869 1.53522 46.3655 1.53522 30.7109C1.53522 15.0564 10.6033 2.43506 21.7271 2.43506C32.851 2.43506 41.919 15.0564 41.919 30.7109Z" stroke="#232323" stroke-width="2"/>
<path d="M24.9527 25.4861V25.4758C24.854 21.5343 23.913 17.724 22.2505 14.5366L22.249 14.5339L21.8272 13.7605L21.7322 13.5864L21.6359 13.7593L21.2047 14.5325L21.2025 14.5366C19.5401 17.724 18.599 21.5343 18.5002 25.4758V25.4861C18.5862 29.2059 19.4271 32.8143 20.9244 35.8907C20.2146 37.4605 19.8207 39.2691 19.7843 41.1261L19.7843 41.1358C19.8371 43.2062 20.3307 45.2079 21.2024 46.8844L21.2047 46.8888L21.6359 47.6621L21.7322 47.8348L21.8272 47.6607L22.249 46.8874L22.2506 46.8844C23.1223 45.2079 23.6159 43.2062 23.6686 41.1358L23.6687 41.1263C23.6342 39.2688 23.2401 37.4595 22.5286 35.8905C24.0259 32.8142 24.8668 29.2057 24.9527 25.4861ZM19.8258 25.481C19.8995 22.3833 20.5573 19.3699 21.7311 16.7453C22.902 19.3717 23.5598 22.3841 23.6365 25.4812C23.5627 28.5828 22.905 31.6002 21.7315 34.2295C20.5621 31.5974 19.9046 28.5815 19.8258 25.481ZM22.3524 41.0783C22.3314 42.2753 22.1175 43.4486 21.728 44.5114C21.3195 43.4591 21.1046 42.279 21.1046 41.0779C21.1046 39.8773 21.3193 38.6979 21.7274 37.646C22.1132 38.7106 22.327 39.8824 22.3524 41.0783Z" fill="#232323" stroke="#232323" stroke-width="0.3"/>
</svg>
