<?xml version="1.0" encoding="utf-8"?>
<!-- Svg Vector Icons : http://www.onlinewebfonts.com/icon -->
<!DOCTYPE svg PUBLIC "-//W3C//DTD SVG 1.1//EN" "http://www.w3.org/Graphics/SVG/1.1/DTD/svg11.dtd">
<svg version="1.1" xmlns="http://www.w3.org/2000/svg" xmlns:xlink="http://www.w3.org/1999/xlink" x="0px" y="0px" viewBox="0 0 256 256" enable-background="new 0 0 256 256" xml:space="preserve">
<metadata> Svg Vector Icons : http://www.onlinewebfonts.com/icon </metadata>
<g> <path fill=" #282828" d="M128,10C64,10,10,64,10,128c0,18.8,6.2,35,12.4,47.6L10.3,230c-1.6,7.1,2.9,14.1,9.9,15.7 c1.9,0.4,3.8,0.4,5.7,0l54.4-12.1C93,239.7,109.2,246,128,246c64,0,118-54,118-118C246,64,192,10,128,10z M128,219.8 c-12.1,0-24.1-3.5-39.9-11.7c-2.7-1.4-5.9-1.8-8.9-1.2l-38.9,8.6l8.6-38.9c0.7-3,0.3-6.1-1.2-8.9c-8.2-15.8-11.6-27.7-11.6-39.9 c0-49.7,42-91.8,91.8-91.8c49.7,0,91.8,42,91.8,91.8C219.8,177.7,177.7,219.8,128,219.8z"/> <path fill=" #282828" d="M177.4,148.2c-2.7-1.4-16-7.9-18.5-8.8c-2.5-0.9-4.3-1.4-6.1,1.4c-1.8,2.7-7,8.8-8.6,10.6 c-1.6,1.8-3.2,2-5.9,0.7c-2.7-1.4-11.4-4.2-21.8-13.4c-8-7.2-13.5-16-15-18.7c-1.6-2.7-0.2-4.2,1.2-5.5c1.2-1.2,2.7-3.1,4.1-4.7 c1.4-1.6,1.8-2.7,2.7-4.5c0.9-1.8,0.4-3.4-0.2-4.7c-0.7-1.4-6.1-14.7-8.4-20.1c-2.2-5.2-4.4-4.5-6.1-4.6l-5.2-0.1 c-2.8,0.1-5.4,1.3-7.2,3.4c-2.5,2.7-9.5,9.3-9.5,22.6c0,13.3,9.7,26.2,11,28c1.4,1.8,19.1,29.1,46.2,40.8 c6.5,2.8,11.5,4.4,15.4,5.7c6.5,2.1,12.4,1.8,17,1.1c5.2-0.8,16-6.6,18.3-12.9c2.3-6.3,2.3-11.7,1.6-12.9 C181.9,150.2,180.1,149.6,177.4,148.2z"/></g>
</svg>